<mxfile host="app.diagrams.net" modified="2023-07-09T15:54:57.547Z" agent="Mozilla/5.0 (Windows NT 10.0; Win64; x64) AppleWebKit/537.36 (KHTML, like Gecko) Chrome/114.0.0.0 Safari/537.36" version="21.5.0" etag="HjDV-bU3Yy-07iQsTTmS" type="github">
  <diagram name="Page-1" id="YP_9iOfo8hESAmEQGah1">
    <mxGraphModel>
      <root>
        <mxCell id="0" />
        <mxCell id="1" parent="0" />
      </root>
    </mxGraphModel>
  </diagram>
</mxfile>
